<?xml version="1.0" encoding="UTF-8" standalone="no"?>
<!-- Created with Inkscape (http://www.inkscape.org/) -->

<svg
   version="1.1"
   id="svg1"
   width="538"
   height="174"
   viewBox="0 0 538 174"
   sodipodi:docname="apartments-simple-logo-white.svg"
   inkscape:version="1.3.2 (091e20e, 2023-11-25, custom)"
   xmlns:inkscape="http://www.inkscape.org/namespaces/inkscape"
   xmlns:sodipodi="http://sodipodi.sourceforge.net/DTD/sodipodi-0.dtd"
   xmlns="http://www.w3.org/2000/svg"
   xmlns:svg="http://www.w3.org/2000/svg">
  <defs
     id="defs1" />
  <sodipodi:namedview
     id="namedview1"
     pagecolor="#ffffff"
     bordercolor="#000000"
     borderopacity="0.25"
     inkscape:showpageshadow="2"
     inkscape:pageopacity="0.0"
     inkscape:pagecheckerboard="0"
     inkscape:deskcolor="#d1d1d1"
     inkscape:zoom="3.063197"
     inkscape:cx="199.79126"
     inkscape:cy="59.904733"
     inkscape:window-width="1920"
     inkscape:window-height="1094"
     inkscape:window-x="-11"
     inkscape:window-y="-11"
     inkscape:window-maximized="1"
     inkscape:current-layer="g1" />
  <g
     inkscape:groupmode="layer"
     inkscape:label="Image"
     id="g1">
    <path
       style="fill:#f4f5e4;fill-rule:nonzero;fill-opacity:1"
       d="m 339.11836,140.83178 c -1.18144,-0.22422 -2.37138,-1.26163 -2.64432,-2.30535 -0.42447,-1.62317 -0.0821,-1.81483 2.36721,-1.32497 6.46602,1.2932 7.40906,-2.11006 1.38121,-4.98454 -2.97951,-1.42083 -3.45604,-2.13585 -3.45604,-5.18569 0,-2.77437 0.52347,-3.77613 2.42626,-4.64309 2.93827,-1.33877 7.57374,-0.35603 7.57374,1.60567 0,0.92289 -0.94802,1.35337 -2.71081,1.23094 -4.14763,-0.28805 -4.05379,2.5767 0.15007,4.58138 4.37937,2.08838 5.71785,6.05418 2.94198,8.71683 -2.17404,2.08537 -4.9702,2.88941 -8.0293,2.30882 z m -167.35194,-0.72707 c 0,-0.52519 6.03599,-16.95433 6.3075,-17.16816 0.10587,-0.0834 1.16244,-0.44932 2.34793,-0.81321 1.95941,-0.60143 2.40473,0.0921 4.89666,7.62578 1.50767,4.55805 2.94837,8.84987 3.20155,9.53737 0.2939,0.79806 -0.48222,1.25 -2.14665,1.25 -1.94032,0 -2.60699,-0.51145 -2.60699,-2 0,-1.62897 -0.66667,-2 -3.59362,-2 -2.75262,0 -3.71602,0.46805 -4.11663,2 -0.28947,1.10692 -1.36402,2 -2.40638,2 -1.03585,0 -1.88337,-0.1943 -1.88337,-0.43178 z m 9.63029,-8.81822 c -0.33164,-1.2375 -0.60913,-2.9025 -0.61664,-3.7 -0.0205,-2.17404 -1.64751,-0.008 -2.40359,3.2 -0.55245,2.3439 -0.33278,2.75 1.48752,2.75 1.72678,0 2.02023,-0.4308 1.53271,-2.25 z m 10.86971,-0.25163 v -9.49923 l 3.6849,4.3e-4 c 7.22411,8.4e-4 10.87565,3.08358 9.34923,7.89288 -0.62994,1.98478 -6.13963,4.83539 -7.23286,3.74215 -0.34903,-0.34903 -0.0951,-0.6346 0.56429,-0.6346 1.73873,0 3.06448,-4.18251 1.98109,-6.25 -0.50436,-0.9625 -1.57618,-1.75 -2.38183,-1.75 -1.16436,0 -1.46482,1.64096 -1.46482,8 0,7.62998 -0.10407,7.99994 -2.25,7.9988 -2.17534,-0.001 -2.25,-0.3164 -2.25,-9.50043 z m 14.83391,8.25163 c 0.27532,-0.6875 1.69977,-4.7375 3.16545,-9 1.46569,-4.2625 3.04113,-7.75 3.50097,-7.75 0.45985,0 1.48333,-0.24837 2.27439,-0.55193 1.06666,-0.40931 2.25053,1.77406 4.58179,8.45011 1.72892,4.95112 3.14349,9.24948 3.14349,9.55193 0,0.30244 -1.125,0.54989 -2.5,0.54989 -1.83333,0 -2.5,-0.53333 -2.5,-2 0,-1.61157 -0.66667,-2 -3.43261,-2 -2.55436,0 -3.59503,0.51171 -4.06739,2 -0.35823,1.12869 -1.51303,2 -2.65072,2 -1.21306,0 -1.81658,-0.49783 -1.51537,-1.25 z m 9.5958,-7.5 c -0.0386,-0.9625 -0.41343,-2.62699 -0.83284,-3.69887 -0.66621,-1.70262 -0.91005,-1.52581 -1.92972,1.39922 -1.48039,4.24665 -1.5209,4.04965 0.83285,4.04965 1.26487,0 1.97417,-0.64324 1.92971,-1.75 z m 10.73376,-0.49968 0.16347,-9.25032 3.83653,-0.26036 c 7.49264,-0.50846 11.72804,4.36885 7.48151,8.61538 -1.97068,1.97068 -1.96689,1.99315 1.02501,6.0615 l 3.00303,4.08348 h -2.48497 c -1.86116,0 -3.11815,-1.06688 -5.0073,-4.25 -1.9145,-3.22581 -2.19127,-4.32574 -1.14853,-4.56428 3.39675,-0.77704 2.36695,-7.18572 -1.15466,-7.18572 -1.05528,0 -1.37756,1.87159 -1.37756,8 0,7.62954 -0.10419,8.00001 -2.25,8.00032 -2.18298,3e-4 -2.24513,-0.27523 -2.08653,-9.25 z m 20.83653,1.50134 c 0,-7.5523 -0.0601,-7.74323 -2.33831,-7.42384 -1.75221,0.24565 -2.25351,-0.0952 -2,-1.35998 0.27025,-1.34824 1.59364,-1.71597 6.57796,-1.82782 4.37792,-0.0982 6.39191,0.25734 6.75,1.19177 0.78701,2.05373 0.68196,2.16821 -1.98965,2.16821 -2.44444,0 -2.5,0.16667 -2.5,7.5 0,7.11062 -0.11681,7.50009 -2.25,7.50166 -2.13997,0.002 -2.25,-0.37741 -2.25,-7.75 z m 11.50711,4.99834 c 0.004,-1.5125 0.28592,-5.7012 0.62669,-9.30821 0.61706,-6.53138 0.63128,-6.5565 3.47683,-6.13886 2.46529,0.36183 3.09026,1.15859 4.55593,5.80821 0.93427,2.96387 1.98432,5.38886 2.33344,5.38886 0.34912,0 1.41493,-2.475 2.36848,-5.5 1.58598,-5.03132 1.98501,-5.5 4.68262,-5.5 2.5762,0 2.9489,0.36062 2.9489,2.85331 0,1.56932 0.28911,5.61932 0.64246,9 0.60791,5.81617 0.52725,6.14669 -1.5,6.14669 -1.97021,0 -2.14246,-0.5226 -2.14246,-6.5 0,-3.575 -0.37875,-6.5 -0.84167,-6.5 -0.46292,0 -1.65917,2.7 -2.65833,6 -2.3892,7.891 -4.64772,8.13152 -7.04255,0.75 -2.55073,-7.86204 -3.45745,-7.98006 -3.45745,-0.45 0,6.03333 -0.199,6.7 -2,6.7 -1.51687,0 -1.99828,-0.6643 -1.99289,-2.75 z m 25.99289,-6.25 v -9 h 4.5 c 2.475,0 4.83134,-0.1125 5.2363,-0.25 0.40497,-0.1375 0.88797,0.5375 1.07333,1.5 0.27122,1.40835 -0.37491,1.75 -3.30963,1.75 -2.93276,0 -3.58168,0.34259 -3.31477,1.75 0.20016,1.05548 1.41987,1.87558 3.07332,2.06642 3.83826,0.44302 3.61568,3.18358 -0.25855,3.18358 -2.53333,0 -3,0.38889 -3,2.5 0,2.2467 0.40209,2.5 3.96862,2.5 3.11681,0 3.84507,0.32195 3.39301,1.5 -0.41319,1.07675 -2.09732,1.5 -5.96862,1.5 h -5.39301 z m 15,0 v -9 h 2.92661 c 2.49931,0 3.38605,0.80303 6.07339,5.5 1.73073,3.025 3.45126,5.50061 3.82339,5.50136 0.37214,7.5e-4 0.52608,-2.41182 0.3421,-5.36127 -0.29569,-4.74038 -0.0926,-5.42588 1.75,-5.90774 2.00358,-0.52395 2.08451,-0.17989 2.08451,8.86127 0,9.13944 -0.065,9.40638 -2.29222,9.40638 -1.77235,0 -3.18985,-1.5309 -6.25,-6.75 l -3.95778,-6.75 -0.29569,6.75 c -0.25976,5.92986 -0.53314,6.75 -2.25,6.75 -1.79432,0 -1.95431,-0.7368 -1.95431,-9 z m 24.5,1.25166 c 0,-7.5523 -0.0601,-7.74323 -2.33831,-7.42384 -1.75221,0.24565 -2.25351,-0.0952 -2,-1.35998 0.27025,-1.34824 1.59364,-1.71597 6.57796,-1.82782 4.37792,-0.0982 6.39191,0.25734 6.75,1.19177 0.78701,2.05373 0.68196,2.16821 -1.98965,2.16821 -2.44444,0 -2.5,0.16667 -2.5,7.5 0,7.11062 -0.11681,7.50009 -2.25,7.50166 -2.13997,0.002 -2.25,-0.37741 -2.25,-7.75 z m -235.749999,-25.49841 3.25,-1.04257 V 74.536494 42.825814 l -3.25,-1.04257 c -2.495796,-0.80063 1.53298,-1.06626 17.360709,-1.14466 l 20.61071,-0.10209 0.6306,5.25 c 0.87586,7.29193 0.80448,8.96476 -0.35202,8.25 -0.55,-0.33992 -1.00614,-2.05398 -1.01365,-3.80902 -0.008,-1.75504 -0.285,-4.20348 -0.61664,-5.44098 -0.58729,-2.19149 -0.95168,-2.25 -14.01173,-2.25 H 98.715627 l 0.2754,15.75 0.27539,15.75 h 12.000003 12 l 0.31037,-3.75 c 0.1707,-2.0625 0.7332,-3.75 1.25,-3.75 0.52046,0 0.88326,3.68035 0.81326,8.25 -0.11615,7.58288 -0.21127,7.94677 -1.17636,4.5 l -1.05,-3.75 H 111.09005 98.766417 v 15.48095 15.480946 l 2.750003,0.60652 c 5.22253,1.15185 4.71142,1.2736 -5.249999,1.25054 -8.371416,-0.0194 -9.47071,-0.19293 -6.75,-1.06571 z m 50.999999,0.12797 3.25,-0.9384 V 72.007904 37.536494 l -3.25,-0.11822 c -2.83234,-0.10302 -2.63777,-0.24576 1.51409,-1.11075 8.08624,-1.68467 7.73591,-3.30375 7.73591,35.75208 v 34.278206 l 3.75,0.99599 c 3.18689,0.84642 2.24836,0.99796 -6.25,1.00915 -7.85567,0.0103 -9.30309,-0.18806 -6.75,-0.92524 z m 38.75,-0.38397 c -2.2,-0.77823 -5.64181,-3.16707 -7.64847,-5.30854 -6.39208,-6.821496 -7.49793,-20.205346 -2.49435,-30.188706 6.56632,-13.10141 27.17192,-15.90491 36.99386,-5.0332 4.43404,4.90795 5.15626,7.3803 5.12182,17.5332 -0.0313,9.22614 -2.05112,14.1665 -7.88661,19.290126 -5.84628,5.1331 -15.74726,6.65696 -24.08625,3.70712 z m 14.85691,-0.87302 c 4.59838,-1.92132 9.2979,-8.016826 10.70591,-13.886106 0.6545,-2.72826 0.97277,-7.99665 0.70726,-11.70753 -0.85193,-11.90679 -6.9895,-19.19726 -16.16146,-19.19726 -2.4121,0 -5.78773,0.72505 -7.5014,1.61122 -6.69013,3.45961 -10.81791,14.04188 -9.78632,25.08894 1.38019,14.780176 11.01953,22.693716 22.03601,18.090736 z m 39.98872,-20.874226 -7.84563,-23.25 -3.5,-0.61836 c -1.925,-0.3401 1.225,-0.60558 7,-0.58996 5.775,0.0156 9.0375,0.20989 7.25,0.43172 -1.7875,0.22182 -3.25,0.90669 -3.25,1.52191 0,0.61523 2.49807,9.47422 5.55127,19.68665 3.0532,10.21242 5.7979,19.400836 6.09934,20.418696 0.74305,2.50907 1.8037,1.1069 3.66922,-4.850656 11.06342,-35.33127 11.88128,-37.60774 13.4034,-37.30775 1.13218,0.22313 3.12097,6.21937 7.23304,21.80775 3.11933,11.825 5.92787,22.174996 6.24119,22.999996 0.70311,1.85131 -0.11246,3.86915 8.84503,-21.883766 3.89948,-11.21108 6.72266,-20.73895 6.27374,-21.17305 -0.44893,-0.43411 -2.16623,-0.98149 -3.81623,-1.2164 -1.65,-0.23491 1.5,-0.43326 7,-0.44077 5.5,-0.007 8.875,0.16355 7.5,0.38013 -6.87092,1.08223 -6.22185,0.0621 -15.47094,24.31425 -8.42771,22.098366 -8.88606,23.019606 -11.45308,23.019606 -2.6065,0 -2.8085,-0.46087 -7.9991,-18.249996 -2.92879,-10.0375 -5.64253,-18.6008 -6.03054,-19.02956 -0.388,-0.42876 -3.59466,7.78184 -7.1259,18.24576 -6.17723,18.304646 -6.52099,19.025476 -9.07481,19.029556 -2.57206,0.004 -2.89765,-0.71672 -10.5,-23.245756 z m 84.96172,20.880946 c -6.38956,-3.05878 -9.33596,-8.118296 -10.07272,-17.296736 -0.95303,-11.87274 3.12595,-21.11068 11.49298,-26.02893 3.95234,-2.32324 5.8915,-2.79611 11.28518,-2.75194 11.1458,0.0913 16.7065,5.25936 17.72321,16.47182 l 0.54178,5.97484 h -17.77326 -17.77325 l 0.49505,6.91908 c 0.54549,7.62388 2.61266,12.132916 7.09517,15.476386 2.15561,1.60785 4.27966,2.10453 9,2.10453 3.39818,0 8.20351,-0.32085 10.67851,-0.71299 3.65709,-0.57944 4.03171,-0.51341 2,0.35251 -1.375,0.58603 -6.325,1.27064 -11,1.52136 -7.54149,0.40446 -9.08556,0.17555 -13.69265,-2.02993 z m 25.36396,-26.216766 c 0.33469,-0.87221 0.064,-4.01919 -0.6016,-6.9933 -1.62812,-7.27521 -5.69227,-11.42088 -11.19629,-11.42088 -8.24648,0 -15.16518,6.6862 -17.33244,16.75 l -0.69989,3.25 h 14.61084 c 12.41636,0 14.70224,-0.23818 15.21938,-1.58582 z m 17.09773,27.462106 3.26904,-0.94334 -0.26904,-22.207226 -0.26904,-22.20723 -3,-0.66997 c -2.01605,-0.45023 -1.0321,-0.61725 3,-0.50924 l 6,0.16072 0.30622,5.36431 0.30623,5.36432 3.54414,-4.14054 c 1.94928,-2.27729 4.82663,-4.80373 6.39412,-5.61431 3.54184,-1.83156 10.95553,-1.98329 10.93398,-0.22378 -0.0312,2.54785 -1.71404,3.97068 -3.88232,3.28249 -3.65654,-1.16054 -8.20121,0.51743 -12.74487,4.70562 l -4.3575,4.01661 v 16.23056 16.230556 l 4.25,1.02199 c 3.76128,0.90447 3.04257,1.02543 -6.25,1.05189 -8.1869,0.0233 -9.77985,-0.17791 -7.23096,-0.91343 z m 44.73096,-0.0895 c -4.92957,-1.7341 -5.50475,-2.65139 -5.42971,-8.659216 0.0508,-4.06814 0.30843,-5.07335 0.92971,-3.62756 0.47269,1.1 0.89106,3.20686 0.92971,4.68191 0.1536,5.860916 11.27593,9.712466 18.35145,6.354906 3.77382,-1.79079 6.71884,-6.525376 6.71884,-10.801586 0,-3.86105 -4.20318,-7.13321 -12.50859,-9.73792 -11.19038,-3.50948 -14.55937,-7.49108 -13.06746,-15.4436 0.7664,-4.08528 5.07713,-8.04331 10.3571,-9.5097 4.77808,-1.32701 6.93102,-1.30608 13.14266,0.12774 l 5.07629,1.17175 -0.1377,6.07825 -0.1377,6.07825 -1.00541,-4.61893 c -1.18984,-5.46619 -4.76361,-8.14383 -10.75889,-8.06109 -6.5993,0.0911 -10.9603,4.52935 -10.9603,11.15449 0,3.83212 3.39647,6.39374 12.2644,9.24985 3.88078,1.24989 8.29905,3.43374 9.81837,4.853 6.21114,5.80207 4.21579,15.507176 -4.04466,19.672676 -4.90165,2.47176 -14.07507,2.95854 -19.53811,1.03678 z"
       id="path22" />
  </g>
</svg>
